<?xml version="1.0" encoding="utf-8"?>
<!-- Generator: Adobe Illustrator 21.0.0, SVG Export Plug-In . SVG Version: 6.00 Build 0)  -->
<svg version="1.1" id="OBJECTS" xmlns="http://www.w3.org/2000/svg" xmlns:xlink="http://www.w3.org/1999/xlink" x="0px" y="0px"
	 viewBox="0 0 262 244.5" style="enable-background:new 0 0 262 244.5;" xml:space="preserve">
<style type="text/css">
	.st0{opacity:0.58;fill:#559574;}
	.st1{opacity:0.5;}
	.st2{fill:#9BF5D9;}
	.st3{opacity:0.33;}
	.st4{clip-path:url(#SVGID_2_);}
	.st5{fill:#583A69;}
	.st6{opacity:0.48;}
	.st7{fill:#785397;}
	.st8{fill:none;stroke:#568C34;stroke-width:0.6294;stroke-linecap:round;stroke-linejoin:round;stroke-miterlimit:10;}
	.st9{fill:none;stroke:#FFFFFF;stroke-width:0.6294;stroke-linecap:round;stroke-linejoin:round;stroke-miterlimit:10;}
	.st10{fill:none;stroke:#1E35CA;stroke-width:0.6294;stroke-linecap:round;stroke-linejoin:round;stroke-miterlimit:10;}
	.st11{fill:none;stroke:#B30000;stroke-width:0.6294;stroke-linecap:round;stroke-linejoin:round;stroke-miterlimit:10;}
	.st12{fill:#2D2830;}
	.st13{opacity:0.5;fill:#18101C;}
	.st14{fill:#18101C;}
	.st15{opacity:0.5;fill:#583A69;}
	.st16{fill:#8E323C;}
	.st17{opacity:0.35;fill:#8E323C;}
	.st18{fill:#3A293F;}
	.st19{fill:#201823;}
	.st20{fill:#E9BB49;}
	.st21{opacity:0.9;fill:#E9BB49;}
	.st22{fill:#FFFFFF;}
	.st23{opacity:0.28;fill:#8E323C;}
	
		.st24{opacity:0.5;fill:none;stroke:#201823;stroke-width:0.6781;stroke-linecap:round;stroke-linejoin:round;stroke-miterlimit:10;}
	.st25{opacity:0.65;fill:#8E323C;}
	.st26{fill:url(#SVGID_3_);}
	.st27{fill:url(#SVGID_4_);}
	.st28{opacity:0.43;fill:#3A293F;}
	.st29{fill:#468462;}
	.st30{fill:#348458;}
	.st31{fill:#79AF91;}
	.st32{opacity:0.78;}
	.st33{fill:#65AA84;}
	.st34{opacity:0.2;}
	.st35{fill:#559574;}
	.st36{font-family:'Rubik-SemiBold';}
	.st37{font-size:27.3149px;}
	.st38{font-family:'Rubik-Regular';}
	.st39{font-size:17.542px;}
	.st40{fill:#82AEA0;}
	.st41{opacity:0.3;fill:#523C2E;}
</style>
<g>
	<g>
		<ellipse class="st0" cx="131" cy="214.5" rx="93.6" ry="7.2"/>
		<g class="st1">
			<g>
				<g>
					<path class="st2" d="M91.9,15.1c12.3-6.5,27.9-7.6,41.5-4.9c17.9,3.6,26.8,3.2,44.7,6.8c10.6,2.1,19.8,15.7,29.5,20.3
						c11.7,5.5,14.1,10.5,20.7,21.6c2.1,3.6,10.1,14.6,10.6,18.7c0.8,7-0.9,10.9,0,17.9c1,8,1.8,12.9,2.7,20.9
						c1.4,11.6-5.5,17.6-4.9,29.3c0.2,5-3,11.6-3.6,16.5c-0.4,3.7-14.8,13.2-16.9,16.3c-9.5,13.5-8.9,16.6-24,23.4
						c-6.4,2.9-8.6,8.8-15.6,9.9c-6.1,1-12.2,0.5-18.3,0c-12.1-1.1-19.5,2.6-31.5,0.6c-10.2-1.7-23.3-0.5-33.6,0
						c-4.8,0.2-12.9-1.5-17.6-2.5c-4.2-0.9-15.4-5.7-19.1-7.8c-7.8-4.7-15.8-13-19.3-21.4c-1.1-2.8-1.5-15-9.6-26.6
						c-7.5-10.6-6.1-10.4-8.7-33.3c-1.5-12.9,1.5-29.3,8.9-39.9c5-7,6.8-13.6,7.9-22.1c0.4-3.2-0.2-6.5,0.3-9.6
						c1.5-9.3,11.5-14.3,20.3-17.8c8.7-3.5,17.2-7.5,26.2-10.4C89.2,18.7,86.8,17.8,91.9,15.1z M31.3,55.6c-0.6-3.6-6.4-3.4-7.1,0
						c-0.2,1.2-1.3,2.5-1.9,3.6c-0.8,1.4-1.5,2.9-2.4,4.3c-1.6,2.7-3.3,5.2-4.6,8.1c-0.9,2-0.9,4.3,0.8,6c1.4,1.4,4.3,2.1,6,0.8
						c3.5-2.7,6.5-5.8,8.3-9.8c0.9-2.1,1.6-4,1.9-6.3C32.5,59.6,31.7,57.9,31.3,55.6z M59.6,23.1c0,2.3-1.7,3.6-3.7,4.3
						c-1.5,0.5-3,0.5-4.5,0.2c-1.5-0.3-2.1-2.5-0.9-3.5c1.1-0.9,1.9-1.6,2.9-2.3c0.1-0.1,0.5-0.3,0.4-0.3c0.6-0.4,0.9-0.7,1.6-0.9
						c0.8-0.3,1.5-0.2,2.4,0C58.8,20.9,59.6,22,59.6,23.1z M69.6,19.8c-0.2,0.3-0.5,0.7-0.8,1c-0.5,0.5-1.1,0.7-1.8,0.9
						c-1.2,0.3-2.4-0.4-2.8-1.6c-0.2-0.5-0.1-1.3,0.2-1.7c0.3-0.4,0.8-0.9,1.4-1c0.7-0.1,1.4-0.2,2.1,0c0.4,0.1,0.8,0.4,1.2,0.6
						C69.7,18.3,70.1,19.2,69.6,19.8z M17.1,152.9c-1.8-0.8-3-3.2-3.6-5.1c-0.6-1.7-0.8-3.5-0.9-5.3c-0.1-3.8,6-4.7,6.7-0.9
						c0.2,1.3,0.6,2.4,1.2,3.6c0.8,1.6,1.7,2.9,1.9,4.7C22.7,152.8,19.3,153.9,17.1,152.9z M27.2,159.1c0,0.4-0.1,0.8-0.3,1.2
						c-0.3,0.7-0.7,1.2-1.3,1.6c-1.1,0.7-2.6,0.5-3.6-0.3c-0.7-0.5-1.2-1.2-1.4-2c-0.1-0.4-0.2-0.9-0.2-1.4c0-0.9,0.4-1.8,1-2.4
						c0.6-0.7,1.5-1,2.4-1c0.8,0,1.8,0.4,2.4,1c0.6,0.6,0.9,1.4,1,2.2c0,0.2,0.1,0.5,0.1,0.7C27.3,158.8,27.3,159,27.2,159.1z
						 M247.6,108.8c-0.2,1.8-2.5,2.2-3.2,0.4c-1.5-3.9-1.8-8-2.7-12c-0.4-1.7,2.2-3,3-1.3C246.5,100.1,248.1,104.3,247.6,108.8z
						 M245.3,124.3C245.3,124.3,245.3,124.3,245.3,124.3C245.3,124.3,245.3,124.3,245.3,124.3z M249.3,122.8c0,0.9-0.5,1.7-1.2,2.3
						c-0.8,0.8-1.8,0.5-2.4-0.3c0.2,0.3-0.4-0.6-0.5-0.6c-0.2-0.3-0.3-0.6-0.4-1c-0.1-0.4-0.1-0.7-0.1-1.1c0-0.1,0-0.2,0-0.3
						c0,0,0-0.1,0-0.1c-0.2-1.2,0.3-2.3,1.5-2.7c1.1-0.4,2.4,0.4,2.7,1.5C249.2,121.3,249.3,122.1,249.3,122.8z M231.8,172
						c-3.3,4.5-6.4,8.3-11.1,11.3c-1.2,0.8-2.8-0.8-2-2c3-4.8,6.9-7.9,11.6-10.8C231.2,169.9,232.5,171.1,231.8,172z M205,29.6
						c-3.3,0.3-5.9-2.2-8-4.5c-2.2-2.4-4.1-5.1-5.7-8c-1.7-3.1,2.7-5.5,4.6-2.7c1.7,2.4,3.6,4.5,5.8,6.5c2.1,1.9,4.3,3.4,5.1,6.2
						C207.2,28.4,206.2,29.5,205,29.6z M214.5,36c-0.6-0.6-1.2-1.2-1.8-1.8c0,0-0.2-0.2-0.3-0.3c-0.2-0.2-0.5-0.3-0.7-0.5
						c-0.3-0.3-0.5-0.6-0.6-1c0,0,0,0,0,0c-0.4-0.7-0.2-1.8,0.6-2.2c-0.3,0.2-0.2,0.2,0.2-0.2c0.2-0.1,0.4-0.2,0.6-0.2
						c0.5-0.1,1-0.1,1.4,0c0.6,0.1,1.2,0.4,1.7,0.7c1.3,0.7,2.2,1.9,2.6,3.4C218.8,36,216.1,37.6,214.5,36z M226.5,46
						c-0.8,0.6-1.9,0.7-2.8,0.2c-1.3-0.7-2.4-1.8-3.4-2.9c-1.1-1.2-1.1-3,0-4.2c1-1.1,3.2-1.2,4.2,0c0.6,0.7,1.2,1.3,1.7,2.1
						c0.4,0.7,0.8,1.5,1.1,2.3C227.7,44.4,227.2,45.5,226.5,46z"/>
				</g>
			</g>
			<g class="st3">
				<defs>
					<path id="SVGID_1_" class="st3" d="M91.9,15.1c12.3-6.5,27.9-7.6,41.5-4.9c17.9,3.6,26.8,3.2,44.7,6.8
						c10.6,2.1,19.8,15.7,29.5,20.3c11.7,5.5,14.1,10.5,20.7,21.6c2.1,3.6,10.1,14.6,10.6,18.7c0.8,7-0.9,10.9,0,17.9
						c1,8,1.8,12.9,2.7,20.9c1.4,11.6-5.5,17.6-4.9,29.3c0.2,5-3,11.6-3.6,16.5c-0.4,3.7-14.8,13.2-16.9,16.3
						c-9.5,13.5-8.9,16.6-24,23.4c-6.4,2.9-8.6,8.8-15.6,9.9c-6.1,1-12.2,0.5-18.3,0c-12.1-1.1-19.5,2.6-31.5,0.6
						c-10.2-1.7-23.3-0.5-33.6,0c-4.8,0.2-12.9-1.5-17.6-2.5c-4.2-0.9-15.4-5.7-19.1-7.8c-7.8-4.7-15.8-13-19.3-21.4
						c-1.1-2.8-1.5-15-9.6-26.6c-7.5-10.6-6.1-10.4-8.7-33.3c-1.5-12.9,1.5-29.3,8.9-39.9c5-7,6.8-13.6,7.9-22.1
						c0.4-3.2-0.2-6.5,0.3-9.6c1.5-9.3,11.5-14.3,20.3-17.8c8.7-3.5,17.2-7.5,26.2-10.4C89.2,18.7,86.8,17.8,91.9,15.1z"/>
				</defs>
				<clipPath id="SVGID_2_">
					<use xlink:href="#SVGID_1_"  style="overflow:visible;"/>
				</clipPath>
				<g class="st4">
				</g>
			</g>
		</g>
	</g>
</g>
<g>
	<g>
		<g>
			<g>
				<path class="st5" d="M212.9,68.5c-0.4-2.2-3.5-7.3-5.4-8.4c-1.9-1.1-8-2.1-9.1-3.1c-2.7-2.4-4.2-7.4-0.6-7.5
					c3.4-0.1,6.2-3.2,6.3-4.4c0.1-1.2,1.2-4.3-5.7-9.9c1.9,4.5,2.4,7.5,1.1,10.4c-1.2,2.9-9.8,3.7-8.2,6.4c0.7,1.2,0.1,7.1,1.2,8.1
					c3,2.9,9.1,4.6,9.1,5.8c0,1.2-1.5,6.6-3.7,6.7c-2.1,0.1-3.7-1.4-3.9-2.6c-0.2-1.2,0.3-3.1,2.4-3.6c-1.8-2.5-7-0.9-7.5,0.5
					c-0.4,1.4-0.1,7,2.3,9c2.3,2,4.9,1.4,8,1.7c3,0.3,4.5,2.4,7.2,0.9C208.9,77,213.4,71.5,212.9,68.5z"/>
			</g>
			<g class="st6">
				<g>
					<path class="st7" d="M212.9,68.5c-0.4-2.2-3.5-7.3-5.4-8.4c-0.1-0.1-0.3-0.1-0.4-0.2c0.1,0.5,0.3,1,0.7,1.4
						c0.5,0.6,1.1,1.1,1.5,1.6c1.2,1.4,1.6,3.5,1.2,5.3c-0.3,1.8-1.3,3.5-2.5,5c-1.1,1.3-2.6,2.5-4.2,2.3c1.8-2.5,2.4-5.8,1.6-8.8
						c-0.6,1.6-1.2,3.2-2,4.6c-0.9,1.4-2.1,2.7-3.6,3.4c-2.7,1.2-6,0.3-8-1.9c-1.6-1.8-2.3-4.4-2.1-6.8c-0.4,0.3-0.8,0.6-0.9,0.9
						c-0.4,1.4-0.1,7,2.3,9c2.3,2,4.9,1.4,8,1.7c3,0.3,4.5,2.4,7.2,0.9C208.9,77,213.4,71.5,212.9,68.5z"/>
				</g>
				<g>
					<path class="st7" d="M192.4,60.1c1.3,1.3,3.3,2.3,5.1,3.2c-0.7-0.6-1.4-1.2-2.1-1.8c-0.9-0.8-1.8-1.7-2.1-2.9
						c-0.4-1.4,0.2-3-0.1-4.4c-0.1-0.6-0.4-1.2-0.6-1.8c-0.2-0.6-0.2-1.3,0.2-1.9c0.5-0.7,1.4-0.8,2.3-1.1c1.1-0.4,2.1-1.1,2.7-2.1
						c0,0,0.1-0.1,0.1-0.2c-2.8,1.7-7.8,2.7-6.6,4.8C191.9,53.2,191.4,59.1,192.4,60.1z"/>
				</g>
			</g>
		</g>
		<g>
			<g>
				<path class="st5" d="M41.8,111.9c0.4-1.9,3.1-6.5,4.9-7.4c1.7-1,5.7-2.2,6.7-3.1c2.4-2.1,3.8-5.7,0.5-5.9
					c-3-0.1-4.1-3.2-4.2-4.3c-0.1-1.1-1-5.2,5.1-8.8c-1.7,4-2.1,6.6-1,9.1c1.1,2.5,8.7,3.3,7.3,5.7c-0.6,1.1-0.1,6.3-1,7.2
					c-1.8,1.7-4.8,2.9-6.7,3.9c-0.9,0.5-0.8,2.5-0.8,2.8c0,1.1,0.7,4.2,2.6,4.3c1.9,0.1,3.3-1.2,3.5-2.3c0.2-1.1-0.2-2.8-2.1-3.2
					c1.6-2.2,6.3-0.8,6.7,0.5c0.4,1.2,0.1,6.2-2,7.9c-2.1,1.8-4.4,1.2-7.1,1.5c-2.7,0.3-4,2.1-6.4,0.8
					C45.4,119.4,41.3,114.5,41.8,111.9z"/>
			</g>
			<g class="st6">
				<g>
					<path class="st7" d="M41.8,111.9c0.4-1.9,3.1-6.5,4.9-7.4c0.1-0.1,0.2-0.1,0.4-0.2c-0.1,0.4-0.3,0.9-0.6,1.2
						c-0.4,0.5-0.9,0.9-1.4,1.4c-1.1,1.3-1.4,3-1.1,4.7c0.3,1.6,1.1,3.1,2.2,4.4c1,1.1,2.3,2.2,3.8,2.1c-1.6-2.2-2.1-5.1-1.4-7.8
						c0.5,1.4,1,2.8,1.8,4.1c0.8,1.3,1.9,2.4,3.2,3c2.4,1.1,5.4,0.3,7.1-1.7c1.5-1.6,2.1-3.9,1.8-6c0.4,0.2,0.7,0.5,0.8,0.8
						c0.4,1.2,0.1,6.2-2,7.9c-2.1,1.8-4.4,1.2-7.1,1.5c-2.7,0.3-4,2.1-6.4,0.8C45.4,119.4,41.3,114.5,41.8,111.9z"/>
				</g>
				<g>
					<path class="st7" d="M60.1,104.4c-1.2,1.1-3,2.1-4.5,2.8c0.6-0.5,1.3-1,1.9-1.6c0.8-0.7,1.6-1.5,1.8-2.6
						c0.3-1.3-0.2-2.6,0.1-3.9c0.1-0.6,0.4-1.1,0.5-1.6c0.2-0.5,0.2-1.2-0.1-1.6c-0.4-0.6-1.3-0.7-2-1c-1-0.3-1.9-1-2.4-1.9
						c0,0,0-0.1-0.1-0.1c2.5,1.5,7,2.4,5.9,4.3C60.5,98.3,61,103.6,60.1,104.4z"/>
				</g>
			</g>
		</g>
	</g>
	<g>
		<g>
			<g>
				<g>
					<path class="st8" d="M40.4,194.5c0,0,0.2-1.2-0.2-1.9"/>
					<path class="st9" d="M40.1,194.6c0,0-0.2-1.5-1-1.6"/>
					<path class="st10" d="M39.6,194.7c0,0-0.4-1.2-1.2-1.1"/>
					<path class="st11" d="M41,194.7c0,0-0.1-1.6,0.7-2"/>
					<g>
						<path class="st12" d="M41.4,193.9l-2.2,0.5c0.1,0.4,2.2,8.8,9.6,12.9c4.9,2.7,10.8,2.9,17.7,0.5c20.6-7,45.9-1.3,46.2-1.2
							l0.5-2.2c-1.1-0.2-26.2-5.9-47.4,1.3c-6.3,2.1-11.6,2-15.9-0.4C43.3,201.7,41.4,194,41.4,193.9z"/>
					</g>
					<path class="st12" d="M39.2,194.5c0,0,0-0.3-0.3-0.5c0.6,0.1,0.6,0.2,0.6,0.2l0.2-0.7l0.2,0.6c0,0,0.5-0.8,0.9-0.9
						c-0.1,0.2,0,0.7,0,0.7l0.8-0.6c0,0-0.3,0.2-0.3,0.7s-0.2,0.8-0.4,0.9c-0.1,0-1,0.2-1.1,0.2C39.8,194.9,39.2,194.5,39.2,194.5z"
						/>
				</g>
				<path class="st13" d="M67.1,207.3c-6.9,2.3-12.9,2.2-17.7-0.5c-5.9-3.3-8.5-9.3-9.3-11.8c-0.1-0.3-0.2-0.5-0.2-0.6
					c-0.1-0.2-0.1-0.4-0.1-0.4c0,0,0-0.1-0.1-0.3l-0.2,0.6c0,0,0,0-0.1-0.1c-0.1,0-0.2-0.1-0.5-0.2c0.3,0.2,0.3,0.5,0.3,0.5
					c0.1,0.4,2.2,8.8,9.6,12.9c4.9,2.7,10.8,2.9,17.7,0.5c20.6-7,45.9-1.3,46.2-1.2l0.2-0.7C109.4,205.3,86.2,200.8,67.1,207.3z"/>
				<path class="st9" d="M35.4,189.1c0,0,1.4,0.3,2.4,2"/>
				<path class="st9" d="M38.3,187.8c0,0,0,2.2,0.6,3.1"/>
				<path class="st9" d="M41.4,187.9c0,0-1.4,1.4-1.3,2.9"/>
			</g>
			<g>
				<g>
					<path class="st12" d="M182.9,207.8l0-2.3c15-0.2,25.7-4.4,29.4-11.5c2.2-4.2,1.7-9.3-1.4-13.8c-7.3-10.7-24.8-1.3-25-1.2
						l-1.1-2c0.8-0.4,19.5-10.5,27.9,1.9c3.6,5.3,4.2,11.1,1.6,16.1C211.8,199.7,204.5,207.5,182.9,207.8z"/>
				</g>
				<g class="st1">
					<path class="st14" d="M213,197c-3.3,4.6-11.3,10.6-30.1,10.8l0-2.3c0.2,0,0.5,0,0.7,0l0,1.4C201.2,206.7,209.3,201.4,213,197z"
						/>
					<path class="st14" d="M185.9,179l-1.1-2c0.1,0,0.4-0.2,0.9-0.4l0.9,1.6c0.2-0.1,17.7-9.5,25,1.2c3.1,4.6,3.6,9.6,1.4,13.8
						c-0.5,0.9-1,1.7-1.7,2.5c0.4-0.5,0.7-1.1,1-1.7c2.2-4.2,1.7-9.3-1.4-13.8C203.5,169.5,186,178.9,185.9,179z"/>
				</g>
			</g>
		</g>
		<g>
			<g>
				<path class="st5" d="M159.8,152.7c-1.3,5.7-8.8,7.6-30.8,7.3c-22,0.3-29.5-1.5-30.8-7.3c-1.3-7.4,1.8-15.6,6.7-24.6
					c1.5-2.7,2.6-5.6,3.5-8.3c0.7-2.1,1.3-4.2,1.7-6c0.3-1.1,0.5-2.2,0.6-3.1c0.1-0.7,0.2-1.3,0.3-1.8v0c0-0.1,0-0.2,0.1-0.4
					c0-0.3,0.1-0.5,0.1-0.8c0-0.2,0.1-0.5,0.1-0.7c0.1-1,0.2-1.6,0.2-1.6l2.5-0.1l1.1,0l2.6-0.1l8.9-0.3c0-0.1,0-0.2,0-0.2l2.3,0.1
					l2.3-0.1c0,0,0,0.1,0,0.2l13,0.5l1.6,0.1h0l0.6,0c0,0,0,0.1,0,0.3v0c0,0.1,0,0.2,0,0.4c0,0.3,0.1,0.7,0.1,1.2
					c0,0.2,0,0.4,0.1,0.6c0.1,0.7,0.2,1.5,0.3,2.4v0c0,0.3,0.1,0.6,0.1,0.9c0.1,0.7,0.2,1.4,0.4,2.1c0.3,1.8,0.7,3.9,1.2,6
					c0,0.1,0,0.1,0.1,0.2c0.1,0.4,0.2,0.8,0.3,1.2c0.6,2.2,1.2,4.6,2.1,7C154.1,136.7,161,145.6,159.8,152.7z"/>
				<path class="st5" d="M96.9,76.8c-1-2.4-1.3-5.2-1.7-9.5c-0.6-6.3-1-11.5-1.2-14.7c-0.4-4.1,1.9-3.3,3.5-2.7c2.9,1.2,7,4,9.1,5.5
					c3.2,2.3,8.3,9,8.2,12.1C111.5,71.5,105.7,75.6,96.9,76.8z"/>
				<path class="st15" d="M114.7,67.4c-0.2,0.2-0.3,0.4-0.5,0.6c-1.1-3.4-5.2-8.5-7.9-10.5c-2.1-1.5-6.2-4.3-9.1-5.5
					c-1.2-0.5-2.7-1.1-3.3,0.3c-0.3-3.9,1.9-3.1,3.5-2.5c2.9,1.2,7,4,9.1,5.5C109.8,57.7,114.9,64.4,114.7,67.4z"/>
				<path class="st16" d="M99.6,76.3c-0.7-1.9-0.5-4.3-0.9-7.5c-0.6-4.8-0.9-8.8-1.2-11.2c-0.4-3.2,1.2-2.5,2.3-1.9
					c2,1,4.7,3.2,6.2,4.4c2.2,1.9,6.7,7.4,6.7,9.7C110.6,72.7,105.5,75.7,99.6,76.3z"/>
				<path class="st17" d="M112.6,69.3c-1.5-2.3-3.7-4.8-5-5.9c-1.4-1.2-4.2-3.4-6.2-4.4c-1.1-0.5-2.6-1.2-2.3,1.9
					c0.3,2.5,0.6,6.4,1.2,11.2c0.2,1.5,0.2,2.8,0.3,4c-0.3,0.1-0.7,0.1-1,0.1c-0.7-1.9-0.5-4.3-0.9-7.6c-0.6-4.8-0.9-8.8-1.2-11.2
					c-0.4-3.1,1.2-2.5,2.3-1.9c2,1,4.7,3.2,6.2,4.4C108.1,61.7,112.2,66.8,112.6,69.3z"/>
				<path class="st18" d="M145.7,63.5c1.3,5.1,16.8,14.1,18.9,12.2c1.6-1.3,1.8-9.4,1.8-11.5c0.2-6.3-0.6-10.7-0.1-13.1
					c0.6-2.4-1.3-4.6-5.3-2.2C157.1,51.4,150.1,56.7,145.7,63.5z"/>
				<path class="st18" d="M145.7,63.5c1.3,5.1,16.8,14.1,18.9,12.2c1.6-1.3,1.8-9.4,1.8-11.5c0.2-6.3-0.6-10.7-0.1-13.1
					c0.6-2.4-1.3-4.6-5.3-2.2C157.1,51.4,150.1,56.7,145.7,63.5z"/>
				<path class="st5" d="M145.7,63.5c1.3,5.1,16.8,14.1,18.9,12.2c1.6-1.3,1.8-9.4,1.8-11.5c0.2-6.3-0.6-10.7-0.1-13.1
					c0.6-2.4-1.3-4.6-5.3-2.2C157.1,51.4,150.1,56.7,145.7,63.5z"/>
				<path class="st15" d="M164.7,75.7c-0.2,0.2-0.6,0.3-1.1,0.2c1-2.7,1.1-8.7,1.2-10.4c0.2-6.3-0.6-10.7-0.1-13.1
					c0.6-2.4-1.3-4.6-5.3-2.2c-0.9,0.6-2,1.3-3.1,2.1c1.8-1.4,3.5-2.6,4.8-3.4c4-2.5,5.8-0.2,5.3,2.2c-0.6,2.4,0.2,6.8,0.1,13.1
					C166.5,66.3,166.3,74.3,164.7,75.7z"/>
				<path class="st16" d="M147.4,66.2c0.7,3,11,9.6,12.3,8.5c0.9-0.8,2.8-7.4,3.3-12.1c0.4-3.7-0.4-6.4,0-7.8
					c0.3-1.4-0.8-2.8-3.1-1.3C157.3,55,150,62.2,147.4,66.2z"/>
				<path class="st17" d="M162.9,62.7c-0.5,4.6-2.3,11.3-3.3,12.1c-0.1,0.1-0.2,0.1-0.3,0.1c0.8-2.5,1.7-6.2,1.9-9.1
					c0.4-3.7-0.4-6.4,0-7.8c0.3-1.4-0.8-2.8-3.1-1.3c-1.9,1.2-7.2,6.2-10.5,10.2c-0.1-0.2-0.2-0.4-0.2-0.6c2.6-4,9.9-11.2,12.3-12.6
					c2.4-1.5,3.5-0.1,3.1,1.3C162.5,56.3,163.3,58.9,162.9,62.7z"/>
				<path class="st5" d="M169.6,90.2c0.1,4-1,7.6-2.9,10.7c-1.2,1.9-2.8,3.7-4.6,5.2c-0.3,0.3-0.7,0.6-1.1,0.9
					c-0.4,0.3-0.7,0.6-1.1,0.8c-0.3,0.2-0.6,0.4-0.9,0.6c-0.3,0.2-0.6,0.4-0.9,0.6c-0.9,0.6-1.9,1.1-2.9,1.6c-0.1,0-0.1,0.1-0.2,0.1
					c-0.1,0.1-0.2,0.1-0.3,0.1h0c-0.1,0-0.2,0.1-0.2,0.1c-0.1,0-0.1,0.1-0.2,0.1c-0.2,0.1-0.5,0.2-0.8,0.2c-0.2,0.1-0.4,0.1-0.6,0.2
					c-0.1,0-0.3,0.1-0.5,0.1c-0.1,0-0.2,0-0.3,0.1c0,0,0,0,0,0c-0.3,0.1-0.6,0.1-0.9,0.2c-0.4,0.1-0.7,0.1-1.1,0.2
					c-0.5,0.1-1,0.2-1.6,0.3h0c-0.2,0-0.3,0.1-0.5,0.1c-0.3,0-0.6,0.1-0.9,0.1c0,0,0,0-0.1,0c0,0,0,0-0.1,0h0
					c-0.3,0-0.5,0.1-0.8,0.1c-0.3,0-0.6,0.1-1,0.1l-0.1,0c0,0,0,0,0,0c-0.5,0.1-1,0.1-1.4,0.2c-0.3,0-0.6,0.1-0.9,0.1
					c-0.3,0-0.5,0.1-0.8,0.1c-0.2,0-0.4,0-0.6,0.1c-0.4,0-0.8,0.1-1.3,0.1c-0.4,0-0.7,0.1-1.1,0.1c-0.2,0-0.4,0-0.6,0
					c-0.6,0-1.1,0.1-1.7,0.1c-0.4,0-0.8,0.1-1.1,0.1c-0.5,0-1,0.1-1.5,0.1c-0.2,0-0.5,0-0.7,0c-0.2,0-0.4,0-0.6,0c-0.3,0-0.7,0-1,0
					c-0.3,0-0.5,0-0.8,0c-0.3,0-0.7,0-1,0c-0.2,0-0.5,0-0.7,0c-0.3,0-0.6,0-0.9,0c-5,0.1-9.9-0.1-13.5-0.7c-0.2,0-0.4-0.1-0.6-0.1
					c-0.2,0-0.3,0-0.5-0.1c-0.5-0.1-0.9-0.1-1.4-0.2c0,0,0,0,0,0c-0.1,0-0.1,0-0.2,0c-0.3,0-0.6-0.1-0.9-0.1h0
					c-0.3,0-0.6-0.1-0.9-0.1c-0.3,0-0.6-0.1-0.9-0.1c-0.3,0-0.5-0.1-0.8-0.1c0,0-0.1,0-0.1,0c-0.3,0-0.6-0.1-0.9-0.1
					c-0.3,0-0.6-0.1-0.9-0.2c-0.3-0.1-0.6-0.1-0.9-0.2c0,0,0,0-0.1,0c-0.2-0.1-0.5-0.1-0.7-0.2c0,0-0.1,0-0.1,0
					c-1.9-0.5-3.6-1.3-5.1-2.3c-0.3-0.2-0.5-0.3-0.8-0.5c-0.2-0.2-0.5-0.4-0.7-0.6c0,0,0,0,0,0c-0.3-0.2-0.6-0.4-0.8-0.7
					c-0.1,0-0.1-0.1-0.2-0.1c-1.1-0.9-2-2-2.9-3.2c-0.5-0.7-0.9-1.5-1.3-2.3c-1.4-3.5-1-7.9-0.6-11.5c0.2-1.7,0.4-3.4,0.7-5.1
					c0.5-3.3,1.5-6.5,3.1-9.4c0.7-1.3,1.6-2.5,2.5-3.6h0c0.4-0.4,0.8-0.9,1.2-1.3c1-1,2.2-1.9,3.4-2.7c1.8-1.1,3.8-2.1,5.9-3
					c0.3-0.1,0.6-0.2,0.8-0.3c0,0,0,0,0,0c0.6-0.2,1.3-0.5,1.9-0.7c0.4-0.1,0.8-0.3,1.3-0.4c0,0,0,0,0,0c3.2-1,6.7-1.8,10.3-2.3h0
					c3.1-0.4,6.3-0.6,9.5-0.6c1.5,0,3.1,0,4.6,0.1c2.9,0.1,5.9,0.4,8.7,1h0c1.1,0.2,2.2,0.5,3.3,0.8h0c0.3,0.1,0.6,0.2,0.9,0.3
					c2.9,1,5.6,2.4,8.1,4.5c0.6,0.5,1.2,1.1,1.8,1.7c0.2,0.2,0.3,0.4,0.5,0.6c0,0,0,0,0,0c0.1,0.1,0.1,0.1,0.2,0.2
					c0.1,0.1,0.1,0.2,0.2,0.2c0.2,0.2,0.3,0.4,0.5,0.6v0h0c0,0,0,0,0,0c0.2,0.2,0.4,0.5,0.5,0.7c0.1,0.1,0.2,0.3,0.3,0.4
					c0,0,0,0,0,0c0,0,0.1,0.1,0.1,0.1c0.1,0.2,0.2,0.3,0.3,0.5c0.1,0.2,0.2,0.3,0.3,0.5c0.1,0.1,0.1,0.2,0.2,0.3
					c0.1,0.1,0.1,0.2,0.2,0.2c0.1,0.1,0.1,0.2,0.2,0.3c0.1,0.2,0.3,0.4,0.4,0.7v0c0.1,0.2,0.2,0.3,0.3,0.5c0.5,0.9,1,1.8,1.4,2.7
					c0.3,0.7,0.6,1.4,0.9,2.1c0.1,0.3,0.3,0.7,0.4,1c0.1,0.3,0.2,0.7,0.4,1c0.1,0.3,0.2,0.7,0.3,1c0.1,0.4,0.2,0.8,0.3,1.2
					c0.1,0.4,0.2,0.8,0.3,1.2c0.2,0.8,0.3,1.5,0.4,2.2c0,0.2,0,0.3,0.1,0.5v0c0,0.2,0,0.3,0.1,0.5c0,0,0,0.1,0,0.1c0,0,0,0.1,0,0.1
					c0,0.1,0,0.1,0,0.2c0,0.1,0,0.1,0,0.2C169.6,89.6,169.6,89.9,169.6,90.2z"/>
				<g>
					<path class="st19" d="M123.5,88.4l-0.2-1.7c-0.1-0.9-0.6-1-1-0.1l-0.1,0.4c-0.2,1.2-0.7,1.6-2,1.3l-23.7-3.5
						c-1-0.2-1,1.6-0.2,1.7l25.3,3.5C122.7,90.3,123.5,89.7,123.5,88.4z"/>
					<path class="st20" d="M122.5,90.2c-1.1,17.7-27.7,15-25.7-3.6L122.5,90.2z"/>
					<path class="st21" d="M122.4,91.3c-2,16.3-26.8,13.7-25.7-3.7C97.8,102.2,118.7,104.4,122.4,91.3z"/>
					<path class="st19" d="M118.9,89.6c-0.8,12.8-19.9,10.8-18.5-2.6L118.9,89.6z"/>
					<path class="st22" d="M103.7,90.4c-3.4,1.2-4.8,3.7-3.3,4s3.8-2.2,4.4-2.7C105.8,90.7,105.5,89.8,103.7,90.4z"/>
					<path class="st22" d="M104.6,94c-2.3,0.8-3.3,2.5-2.3,2.8c1,0.2,2.6-1.5,3-1.9C106,94.2,105.8,93.6,104.6,94z"/>
				</g>
				<g>
					<path class="st19" d="M161.3,86.4L136,89.9c-1.6,0.2-2.2-0.3-2.1-2c0-0.3,0.1-1.4,0.1-1.4c0.1-1,0.8-0.6,1-0.1l0,0
						c0.2,1.9,1.4,1.9,2.5,1.7l23.7-3.5C162.4,84.5,162.5,86.3,161.3,86.4z"/>
					<path class="st20" d="M134.9,90.1c1.1,17.7,27.7,15,25.7-3.6L134.9,90.1z"/>
					<path class="st21" d="M135.2,92.4c4.4,12.3,24.7,9.7,25.5-4.8C161.5,104.4,138.3,107.2,135.2,92.4z"/>
					<path class="st19" d="M138.5,89.5c0.8,12.8,19.9,10.8,18.5-2.6L138.5,89.5z"/>
					<path class="st22" d="M153.7,90.3c3.4,1.2,4.8,3.7,3.3,4c-1.5,0.3-3.8-2.2-4.4-2.7C151.6,90.6,151.9,89.6,153.7,90.3z"/>
					<path class="st22" d="M152.8,93.9c2.3,0.8,3.3,2.5,2.3,2.8c-1,0.2-2.6-1.5-3-1.9C151.4,94.1,151.6,93.5,152.8,93.9z"/>
				</g>
				<path class="st16" d="M131.2,94.8c-0.3-0.8-5-0.8-5.5,0.2c-0.4,0.7,1.6,3.3,2.8,3.3C129.3,98.4,131.6,95.8,131.2,94.8z"/>
				<path class="st23" d="M128.4,98.4c-0.9,0-2.4-1.6-2.7-2.7c0.6,0.8,1.5,1.6,2.1,1.6c0.7,0,2.3-1.6,2.7-2.8
					c0.3,0.1,0.6,0.2,0.7,0.4C131.6,95.8,129.3,98.4,128.4,98.4z"/>
				<path class="st24" d="M182,100.5c-0.7-0.1-1.5-0.6-1.4-1.3c0.1-0.4,0.5-0.7,0.9-0.7c0.4-0.1,0.8,0.1,1.2,0.2c0.9,0.3,2,1,1.9,2
					c-0.1,0.5-0.5,1-0.9,1.2c-0.5,0.2-1,0.3-1.5,0.4c-1.3,0.2-2.9,0.3-3.9-0.6c-0.3-0.3-0.5-0.6-0.9-0.8c-0.8-0.3-1.5,0.5-2,1.1
					c-0.5,0.7-1.3,1.4-2,1c-0.5-0.2-0.7-0.9-1-1.3c-0.5-0.7-1.5-0.9-2.3-0.5c-0.3,0.2-0.5,0.4-0.8,0.6c-0.3,0.2-0.7,0.2-0.9,0
					c-0.1-0.1-0.2-0.3-0.3-0.4c-0.3-0.4-0.8-0.5-1.3-0.5c0,0,0,0,0,0c-0.5,0-0.9,0.2-1.4,0.4c-1,0.3-2,0.5-3,0.7
					c-0.8,0.1-1.6,0.2-2.5,0.2c-0.6,0.1-1.3,0.1-1.9,0.2c-4.7,0.5-7.8,2.3-12.4,1.4 M180.9,109.3c0.6,0,1.2,0,1.7-0.3
					c0.5-0.3,0.8-1,0.4-1.5c-0.2-0.3-0.5-0.4-0.8-0.5c-1.6-0.5-3.4-0.3-4.9,0.4c-0.6,0.3-1.1,0.7-1.8,0.7c-0.9,0-1.6-0.7-2.5-0.7
					c-0.8,0-1.5,0.5-2.3,0.7c-1.3,0.5-2.8,0.2-3.9-0.6c-0.4-0.3-0.8-0.6-1.2-0.6c-0.2,0-0.3,0.1-0.4,0.2c-0.8,0.5-1.4,1.3-2.3,1.4
					c-0.7,0.1-1.3-0.2-1.9-0.4c-0.3-0.1-0.6-0.2-0.9-0.3l0,0c-0.6-0.2-1.2-0.3-1.9-0.5c-0.6-0.1-1.2-0.2-1.8-0.3
					c-3.7-0.6-8.1-0.9-10.7-0.8 M144.7,108.9C144.8,108.9,144.8,108.9,144.7,108.9c0.5,0.1,1,0.2,1.5,0.3c0,0,0,0,0,0
					c0.3,0.1,0.7,0.1,1,0.2c0.6,0.1,1.3,0.2,2,0.3c0.5,0.1,1,0.2,1.5,0.2c0,0,0,0,0,0c1.5,0.3,3,0.6,4.2,0.9h0
					c0.5,0.2,1,0.3,1.4,0.5c1.2,0.6,2.3,1.3,3.6,1.2c0.7,0,1.4-0.3,2-0.2c0.9,0.1,1.7,0.9,2.6,1c0.7,0.1,1.4-0.3,2.2-0.2
					c0.5,0,1,0.3,1.5,0.4c0.9,0.2,2.1,0,2.6,0.7c0.2,0.3,0.2,0.7,0.4,1c0.2,0.3,0.4,0.5,0.7,0.6c1.3,0.7,3,0.5,4.5,0.3
					c0.4-0.1,0.9-0.2,1.1-0.6c0.1-0.4-0.1-0.8-0.5-0.9c-0.4-0.2-0.8-0.1-1.1,0.1"/>
				<path class="st25" d="M128.9,94.7c-0.8-0.2-2.1-0.1-2.7,0.4c-0.1,0.1-0.1,0.4,0.1,0.4c0.4,0,0.8-0.2,1.2-0.2
					c0.4-0.1,0.9-0.1,1.4-0.1C129,95.1,129.1,94.7,128.9,94.7z"/>
				<g>
					
						<radialGradient id="SVGID_3_" cx="108.5781" cy="104.4081" r="8.5984" gradientTransform="matrix(0.9995 -3.223100e-02 2.235832e-02 0.6933 -2.278 35.5184)" gradientUnits="userSpaceOnUse">
						<stop  offset="0.1656" style="stop-color:#592847"/>
						<stop  offset="1" style="stop-color:#592847;stop-opacity:0"/>
					</radialGradient>
					<ellipse class="st26" cx="108.6" cy="104.4" rx="9.5" ry="6.5"/>
					
						<radialGradient id="SVGID_4_" cx="150.5564" cy="103.3227" r="8.5984" gradientTransform="matrix(0.9995 -3.223100e-02 2.235832e-02 0.6933 -2.2319 36.5386)" gradientUnits="userSpaceOnUse">
						<stop  offset="0.1656" style="stop-color:#592847"/>
						<stop  offset="1" style="stop-color:#592847;stop-opacity:0"/>
					</radialGradient>
					<ellipse class="st27" cx="150.6" cy="103.3" rx="9.5" ry="6.5"/>
				</g>
				<path class="st28" d="M121.2,87.2c-2.2,0-4.5-0.7-6.6-1.2c-2.1-0.4-4.2-1-6.3-1.3c-0.3,0-0.3,0.4-0.1,0.5
					c2.2,0.7,4.6,1.1,6.8,1.6c1.1,0.2,2.2,0.5,3.3,0.7c1,0.2,2,0.5,3,0.3C121.6,87.7,121.5,87.2,121.2,87.2z"/>
				<path class="st28" d="M160.8,83.7c-4.1,0.1-8.2,1-12.2,1.5c-2.1,0.3-4.1,0.6-6.2,0.9c-1.1,0.2-6.6,1.4-6.5-0.6
					c0-0.3-0.6-0.4-0.6-0.1c-0.3,2,2.3,1.9,3.6,1.8c2.4-0.2,4.8-0.6,7.1-1c4.9-0.7,9.9-1.6,14.9-1.9
					C161.3,84.3,161.3,83.7,160.8,83.7z"/>
				<g>
					<path class="st5" d="M122.4,63.4c1.8-2.6,6.3-6.2,7.5-5.3c0.3,0.3-1.2,1.7-1.5,2.8c1.7-1.2,5.5-3.9,5.5-2.8
						c0,0.6-0.8,1.7-1.2,2.5c0.9-0.8,5.1-3.3,5.2-2.1c0.2,1.2,0.1,2.4-0.3,3.6c-3.1,0.4-6.1,0.8-9.2,1.1L122.4,63.4z"/>
				</g>
				<path class="st15" d="M169.6,90.2c0.1,4-1,7.6-2.9,10.7c-1.2,1.9-2.8,3.7-4.6,5.2c-0.3,0.3-0.7,0.6-1.1,0.9
					c-0.4,0.3-0.7,0.6-1.1,0.8c-0.3,0.2-0.6,0.4-0.9,0.6c-0.3,0.2-0.6,0.4-0.9,0.6c-0.9,0.6-1.9,1.1-2.9,1.6c-0.1,0-0.1,0.1-0.2,0.1
					c-0.1,0.1-0.2,0.1-0.3,0.1h0c-0.1,0-0.2,0.1-0.2,0.1c-0.1,0-0.1,0.1-0.2,0.1c-0.2,0.1-0.5,0.2-0.8,0.2c-0.2,0.1-0.4,0.1-0.6,0.2
					c-0.1,0-0.3,0.1-0.5,0.1c-0.1,0-0.2,0-0.3,0.1c0,0,0,0,0,0c-0.3,0.1-0.6,0.1-0.9,0.2c-0.4,0.1-0.7,0.1-1.1,0.2
					c-0.7,0.1-1.3,0.2-2.1,0.4c-0.3,0-0.6,0.1-0.9,0.1c0,0,0,0-0.1,0c0,0,0,0-0.1,0c0,0,0,0,0,0c-0.3,0-0.5,0.1-0.8,0.1
					c-0.3,0-0.6,0.1-1,0.1l-0.1,0h0v0c-0.5,0.1-1,0.1-1.4,0.2c-0.3,0-0.6,0.1-0.9,0.1c-0.3,0-0.5,0.1-0.8,0.1c-0.2,0-0.4,0-0.6,0.1
					c-0.4,0-0.8,0.1-1.3,0.1c-0.4,0-0.7,0.1-1.1,0.1c-0.2,0-0.4,0-0.6,0c-0.6,0-1.1,0.1-1.7,0.1c-0.4,0-0.8,0.1-1.1,0.1
					c-0.5,0-1,0.1-1.5,0.1c-0.2,0-0.5,0-0.7,0c-0.2,0-0.4,0-0.6,0c-0.3,0-0.7,0-1,0c-0.3,0-0.5,0-0.8,0c-0.3,0-0.7,0-1,0
					c-0.2,0-0.5,0-0.7,0c-0.3,0-0.6,0-0.9,0c-5,0.1-9.9-0.1-13.5-0.7c-0.4-0.1-0.7-0.1-1.1-0.2c-0.5-0.1-0.9-0.1-1.4-0.2
					c0,0,0,0,0,0c-0.4,0-0.7-0.1-1.1-0.1h0c-0.3,0-0.6-0.1-0.9-0.1c-0.3,0-0.6-0.1-0.9-0.1c-0.3,0-0.5-0.1-0.8-0.1c0,0-0.1,0-0.1,0
					c-0.3,0-0.6-0.1-0.9-0.1c-0.3,0-0.6-0.1-0.9-0.2c-0.3-0.1-0.6-0.1-0.9-0.2c0,0,0,0-0.1,0c-0.2-0.1-0.5-0.1-0.7-0.2
					c0,0-0.1,0-0.1,0c-1.9-0.5-3.6-1.3-5.1-2.3c-0.3-0.2-0.5-0.3-0.8-0.5c-0.3-0.2-0.5-0.4-0.7-0.6c0,0,0,0,0,0
					c0.9,0.5,2.5,1,4.7,1.5c0,0,0,0,0,0c1.4,0.3,3,0.6,4.8,0.9c0.6,0.1,1.2,0.2,1.8,0.3h0c0.9,0.1,1.9,0.2,2.9,0.3
					c0.1,0,0.1,0,0.2,0v0c0.8,0.1,1.6,0.2,2.4,0.2c9.2,0.8,20.5,0.8,29.8-0.9l0.4-0.1c0.8-0.2,1.7-0.3,2.5-0.5
					c0.3-0.1,0.6-0.1,0.9-0.2c0.2,0,0.3-0.1,0.5-0.1c2.6-0.7,5-1.6,7-2.6c1.4-0.7,2.6-1.5,3.6-2.4h0c0.9-0.8,1.8-1.7,2.5-2.6
					c6.6-8.4,4-19.7,1.8-26.1v0c-0.1-0.3-0.2-0.6-0.3-0.8c-0.8-2.2-1.6-3.7-1.7-3.9c0.2,0.2,0.4,0.5,0.5,0.7
					c0.1,0.1,0.2,0.3,0.3,0.4c0,0,0,0,0,0c0,0,0.1,0.1,0.1,0.1c0.1,0.2,0.2,0.3,0.3,0.5c0.1,0.2,0.2,0.3,0.3,0.5
					c0.1,0.1,0.1,0.2,0.2,0.3c0.1,0.1,0.1,0.2,0.2,0.2c0.1,0.1,0.1,0.2,0.2,0.3c0.1,0.2,0.3,0.4,0.4,0.7v0c0.1,0.2,0.2,0.3,0.3,0.5
					c0.5,0.9,1,1.8,1.4,2.7c0.3,0.7,0.6,1.4,0.9,2.1c0.1,0.3,0.3,0.7,0.4,1c0.1,0.3,0.2,0.7,0.4,1c0.1,0.3,0.2,0.7,0.3,1
					c0.1,0.4,0.2,0.8,0.3,1.2c0.1,0.4,0.2,0.8,0.3,1.2c0.2,0.8,0.3,1.5,0.4,2.2c0,0.2,0,0.3,0.1,0.5v0c0,0.2,0,0.3,0.1,0.5
					c0,0,0,0.1,0,0.1c0,0,0,0.1,0,0.1c0,0.1,0,0.1,0,0.2c0,0.1,0,0.1,0,0.2C169.6,89.6,169.6,89.9,169.6,90.2z"/>
				<path class="st24" d="M116.7,103.7c-4.7,0.9-7.7-0.9-12.4-1.4c-1.5-0.2-3-0.2-4.5-0.4c-1-0.1-1.9-0.3-2.9-0.7
					c-0.5-0.2-0.9-0.4-1.4-0.4c-0.5,0-1,0.1-1.3,0.5c-0.1,0.1-0.2,0.3-0.3,0.4c-0.2,0.2-0.4,0.2-0.6,0.1c-0.1,0-0.2-0.1-0.3-0.1
					c-0.3-0.2-0.5-0.4-0.8-0.6c-0.7-0.4-1.8-0.2-2.3,0.5c-0.3,0.4-0.5,1.1-1,1.3c-0.7,0.4-1.5-0.4-2-1c-0.5-0.7-1.2-1.4-2-1.1
					c-0.4,0.1-0.6,0.5-0.9,0.8c-1,0.9-2.5,0.8-3.8,0.6c-0.5-0.1-1.1-0.2-1.5-0.4c-0.5-0.2-0.9-0.7-0.9-1.2c-0.1-1,0.9-1.7,1.9-2
					c0.4-0.1,0.8-0.2,1.2-0.2c0.4,0.1,0.8,0.3,0.9,0.7c0.1,0.7-0.7,1.2-1.4,1.3 M116.7,106.2c-3.9-0.2-11.7,0.5-15.3,1.9
					c-0.1,0.1-0.3,0.1-0.4,0.2h0c-0.5,0.2-1,0.3-1.5,0.2c-0.8-0.1-1.4-0.6-2-1.1c-0.1-0.1-0.2-0.2-0.3-0.2c-0.1-0.1-0.3-0.2-0.4-0.2
					c-0.4-0.1-0.8,0.3-1.2,0.6c-1.1,0.9-2.6,1.1-3.9,0.6c-0.8-0.3-1.5-0.8-2.3-0.7c-0.9,0-1.6,0.7-2.5,0.7c-0.6,0-1.2-0.4-1.8-0.7
					c-1.5-0.7-3.3-0.9-4.9-0.4c-0.3,0.1-0.6,0.2-0.8,0.5c-0.3,0.5-0.1,1.2,0.4,1.5c0.5,0.3,1.1,0.3,1.7,0.3 M86.5,114.6
					c-0.4-0.1-0.8-0.2-1.1-0.1c-0.4,0.2-0.6,0.6-0.5,0.9c0.2,0.4,0.6,0.5,1.1,0.6c1.5,0.2,3.1,0.4,4.5-0.3c0.3-0.1,0.5-0.3,0.7-0.6
					c0.2-0.3,0.2-0.7,0.4-1c0.5-0.8,1.7-0.6,2.6-0.7c0.5-0.1,1-0.3,1.5-0.4c0.7-0.1,1.4,0.3,2.2,0.2c0.9-0.1,1.7-0.8,2.6-1
					c0.7-0.1,1.4,0.2,2,0.2c1,0.1,1.9-0.3,2.8-0.8c0.3-0.1,0.5-0.3,0.8-0.4c0.3-0.2,0.7-0.3,1.1-0.4c0,0,0,0,0,0
					c0.2-0.1,0.5-0.2,0.8-0.2c1.5-0.4,3.4-0.7,5.1-1c0.4-0.1,0.8-0.1,1.1-0.2c0.2,0,0.5-0.1,0.7-0.1h0c1-0.2,2-0.3,2.7-0.5"/>
			</g>
			<path class="st15" d="M147.2,112.4c-0.5-0.7-1.1-1.3-1.8-2c-0.2-0.2-0.3-0.3-0.5-0.5c-0.7-0.6-1.4-1.3-2.1-1.8
				c-2.7-2.1-5.8-3.7-9-4.4c-0.1,0.4-0.2,0.6-0.4,0.7c-0.4,0.1-0.9-0.4-1.4-1c-2-0.2-4.1-0.1-6.2,0.6c-0.3,0.4-0.6,0.8-0.9,0.7
				c-0.1,0-0.2-0.1-0.4-0.3c-0.6,0.2-1.1,0.5-1.7,0.8c-1.2,0.6-2.3,1.3-3.5,2.2c-0.2,0.2-0.4,0.4-0.7,0.5c-1.8,1.5-3.4,3.3-5,5.1
				c-1.5,1.8-3.1,3.5-4.5,5.4c0,0,0,0-0.1,0.1c0.2-1,1.5-4.7,1.7-5.5c0,0,0.6-0.2,0.5-0.2c-0.4,0,0.4,0,0,0c0.4-0.5,0.8-1,1.2-1.5
				c0.1-0.1,0.2-0.2,0.3-0.3c0.3-0.3,0.6-0.7,0.9-1c0.1-0.2,0.3-0.3,0.4-0.5c0.4-0.4,0.8-0.9,1.3-1.3c0.8-0.7,1.5-1.4,2.4-2.1
				c0.1-0.1,0.2-0.2,0.3-0.2c1.8-1.4,3.6-2.5,5.5-3.2c-0.7-0.6-0.7-1.1-0.7-1.1l11.9-0.6c0,0.3-0.1,0.6-0.2,0.9
				c2.3,0.5,4.6,1.5,6.6,2.7c2.3,1.3,4.3,3,6.1,4.8c0.1,0.1,0.1,0.1,0.2,0.2c0.1,0.1,0.3,0.3,0.4,0.5c0.5,0.6,1,1.2,1.5,1.8
				c1-0.3,2-0.4,2.9-0.2c-0.3,0.1-0.6,0.1-0.9,0.2c-0.4,0.1-0.7,0.1-1.1,0.2c-0.5,0.1-1,0.2-1.6,0.3c-0.2,0-0.3,0.1-0.5,0.1
				c-0.3,0-0.6,0.1-0.9,0.1C147.3,112.4,147.3,112.4,147.2,112.4C147.2,112.4,147.2,112.4,147.2,112.4z"/>
		</g>
		<g>
			<path class="st29" d="M195.1,215.9H63.7c-4.3,0-7.7-3.5-7.7-7.7l0,0h146.7l0,0C202.8,212.4,199.3,215.9,195.1,215.9z"/>
			<g>
				<g>
					<g>
						<path class="st29" d="M198.5,132.2V200c0,6.1-4.9,11-11,11H71.3c-6.1,0-11-4.9-11-11v-67.9c0-6.1,4.9-11,11-11h116.2
							C193.6,121.1,198.5,126.1,198.5,132.2z"/>
						<path class="st30" d="M180.5,208.1H78.3c-7.5,0-13.5-6.1-13.5-13.5v-57c0-7.5,6.1-13.5,13.5-13.5h102.1
							c7.5,0,13.5,6.1,13.5,13.5v57C194,202.1,187.9,208.1,180.5,208.1z"/>
						<path class="st31" d="M194,129.4v71.1c0,2.5-1.2,4.7-3.1,6.1c0.9-1.3,1.5-2.9,1.5-4.6V131c0-2.9-2.4-5.3-5.3-5.3H70.9
							c-1.7,0-3.3,0.6-4.6,1.5c1.4-1.9,3.6-3.1,6.1-3.1h116.2C191.6,124.1,194,126.5,194,129.4z"/>
						<g class="st32">
							<path class="st33" d="M199.9,208.1c-11.7,0.3-23.4,0.5-35.1,0.7c-5.8,0.1-11.7,0.1-17.5,0.1l-17.5,0l-17.5,0
								c-5.8,0-11.7-0.1-17.5-0.1c-11.7-0.1-23.4-0.3-35.1-0.7H199.9z"/>
						</g>
					</g>
					<g>
						<g class="st34">
							<path class="st35" d="M173.4,132.4H83.5c-2.5,0-4.5,2-4.5,4.5v60.2c0,2.5,2,4.5,4.5,4.5h89.9c2.5,0,4.5-2,4.5-4.5v-60.2
								C177.9,134.4,175.9,132.4,173.4,132.4z"/>
							<g>
								<circle cx="85.1" cy="137.9" r="1.2"/>
								<circle cx="90.6" cy="137.9" r="1.2"/>
								<circle cx="96.1" cy="137.9" r="1.2"/>
							</g>
						</g>
						<g>
							<path class="st22" d="M179.8,135.1v60.2c0,2.5-2,4.5-4.5,4.5H85.3c-2.5,0-4.5-2-4.5-4.5v-60.2c0-2.5,2-4.5,4.5-4.5h89.9
								C177.8,130.6,179.8,132.6,179.8,135.1z"/>
							<path class="st35" d="M179.8,135.1v6.5H80.9v-6.5c0-2.5,2-4.5,4.5-4.5h89.9C177.8,130.6,179.8,132.6,179.8,135.1z"/>
							<g>
								<circle class="st22" cx="87" cy="136.1" r="1.2"/>
								<circle class="st22" cx="92.5" cy="136.1" r="1.2"/>
								<circle class="st22" cx="98" cy="136.1" r="1.2"/>
							</g>
						</g>
						<g>
							<text transform="matrix(1 0 0 1 101.7178 172.1778)" class="st35 st36 st37">404</text>
							<g>
								<text transform="matrix(1 0 0 1 101.7178 189.8243)" class="st35 st38 st39">ERROR</text>
							</g>
						</g>
					</g>
				</g>
				<path class="st15" d="M106.3,121.1h2.4c-0.6,1.1-1.1,2.1-1.6,3.1c-0.2,0.4-0.3,0.7-0.5,1.1c-0.6,1.4-1.3,2.7-1.9,4.1
					c-1.6,3.5-3,6.9-4.2,10.5c-0.3,1-0.7,2.1-1,3.2c0,0.2,0,0.3,0,0.4c0,0,0,0.1,0,0.1v0.3c0,0,0,0.1,0,0.1c0,0.1,0,0.1,0,0.2
					c0,0,0,0.1,0,0.1c0,0.1,0,0.1,0,0.2c0,0,0,0,0,0c0.1,0.2,0.1,0.2,0.2,0.3h0c0,0,0,0,0,0c-0.2-0.1-0.5-0.4-0.6-0.5c0,0,0,0,0,0
					l0.4,1.1c-0.4-0.1-0.5-0.6-0.6-1c0,0.1-0.1,0.2-0.1,0.4c-0.1-0.3-0.2-0.5-0.3-0.6l0.1,1.4c-0.4-0.3-0.4-1-0.3-1.5
					c-0.1,0-0.1,0.1-0.1,0.1s-0.3,0.2-0.5,0.2l-0.4,1c0-0.4,0.2-0.8,0.3-1.2c0-0.2-0.1-0.5-0.3-0.6c-0.3,0.4-0.7,1-1.3,1l0.9-0.9
					c-0.5,0.2-0.6,0.1-0.6,0.1c0.5-0.2,0.9-1.1,0.9-1.1h0c1.8-6.2,4.4-12.2,7.3-18.2C105.2,123.4,105.7,122.3,106.3,121.1z"/>
				<path class="st15" d="M158.8,123.8l-0.1,0.1c-0.3,0.2-0.7,0.1-0.9-0.2l-1.1-1.7l-2.6,1.6l1.1,1.7c0.2,0.3,0.1,0.7-0.2,0.9
					l-0.1,0.1c-0.3,0.2-0.7,0.1-0.9-0.2l-1.1-1.7l-1.7,1c-0.6,0.3-1.3,0.2-1.6-0.4l-2.4-3.8l-0.1-0.1H158l0,0l1.1,1.7
					C159.2,123.2,159.1,123.6,158.8,123.8z"/>
			</g>
		</g>
		<g>
			<path class="st8" d="M98.1,141.9c0,0-0.8,1-0.7,1.8"/>
			<path class="st9" d="M98.5,141.9c0,0-0.5,1.4,0.2,1.9"/>
			<path class="st10" d="M98.9,142.1c0,0-0.2,1.3,0.6,1.6"/>
			<path class="st11" d="M97.7,141.4c0,0-0.6,1.5-1.5,1.5"/>
			<path class="st12" d="M149.4,110.1c-5.4-7.2-15.7-13.2-25.6-9.3c-1.9,0.8-3.9,1.9-5.7,3.3c-6.6,5.1-10.6,12.7-13.4,18.7
				c-2.8,6-5.5,12-7.3,18.2c0,0,0,0,0,0s-0.5,0.9-0.9,1.1c0,0,0.2,0.2,0.8-0.2c0.3-0.2,0.5,0.5,0.5,0.7c0,0.2,0.5-0.2,0.5-0.2
				s0.3-0.4,0.5,0.6c0.1-0.5,0.2-0.6,0.3-0.5c0.1,0.1,0.7,0.5,0.7,0.5s-0.4-0.3-0.2-1.7c1.7-6,4.3-11.8,7.1-17.7
				c2.7-5.8,6.6-13,12.8-17.9c1.7-1.3,3.4-2.3,5.2-3c8.8-3.4,18.1,2,23,8.6c0.6,0.8,1.1,1.6,1.7,2.5l1.8-1.1
				C150.6,111.8,150,110.9,149.4,110.1z"/>
			<path class="st13" d="M151.1,112.7l-1.8,1.1c-0.5-0.9-1.1-1.7-1.7-2.5c-4.9-6.6-14.2-12-23-8.6c-1.8,0.7-3.5,1.7-5.2,3
				c-6.2,4.9-10.1,12.1-12.8,17.9c-2.7,5.9-5.4,11.7-7.1,17.7c-0.2,1.2,0.1,1.6,0.2,1.6c-0.1-0.1-0.3-0.2-0.4-0.3c0-0.2,0-0.3,0-0.5
				c0-0.9,0.2-1.7,0.5-2.6c0.2-0.7,0.5-1.5,0.7-2.2c0.5-1.5,1-2.9,1.6-4.4c0.6-1.5,1.2-2.9,1.8-4.4c0.6-1.5,1.3-2.9,2-4.4
				c0.3-0.5,0.5-1.1,0.8-1.6c2.7-5.8,6.6-13,12.8-17.9c1.7-1.3,3.4-2.3,5.2-3c8.8-3.4,18.1,2,23,8.6c0.6,0.8,1.1,1.6,1.7,2.5
				l1.4-0.9C150.8,112.2,151,112.5,151.1,112.7z"/>
			<g>
				<g>
					<path class="st22" d="M133.9,100.3c0,0,0,2.3-0.6,2.5c-0.7,0.2-2-1.9-2-1.9L133.9,100.3z"/>
					<path class="st22" d="M123.9,100.8c0,0,0.5,2.3,1,2.3c0.7,0.1,1.6-2.2,1.6-2.2L123.9,100.8z"/>
				</g>
				<path class="st5" d="M122.5,99.5c0,0,2,4.3,6.2,1c2.2,2.5,6.3,0.9,6.1-1.3"/>
			</g>
			<g>
				<path class="st22" d="M154.8,124.7L154.8,124.7c-0.4,0.2-0.8,0.1-1.1-0.2l-1.8-2.9c-0.1-0.2-0.1-0.4,0.1-0.5l0.7-0.4
					c0.2-0.1,0.4-0.1,0.5,0.1l1.8,2.9C155.3,124,155.2,124.5,154.8,124.7z"/>
				<path class="st15" d="M149.1,121.1h-2.2l-1.2-2c-1.6-2.6-0.9-5.9,1.5-7.7c0.1,0.7,0.2,1.4,0.4,2.1c0.3,1.8,0.7,3.9,1.2,6
					c0,0.1,0,0.1,0.1,0.2C148.9,120.3,149,120.7,149.1,121.1z"/>
				<path class="st22" d="M158.8,122.2L158.8,122.2c-0.4,0.2-0.8,0.1-1.1-0.2l-1.6-2.5c-0.2-0.4-0.1-0.8,0.2-1.1l0,0
					c0.4-0.2,0.8-0.1,1.1,0.2l1.6,2.5C159.2,121.5,159.1,122,158.8,122.2z"/>
				<path class="st40" d="M158.9,118.9l-8,5c-0.5,0.3-1.1,0.1-1.4-0.3l-3.2-5.1c-1.7-2.7-0.9-6.2,1.8-7.9l0,0
					c2.7-1.7,6.2-0.9,7.9,1.8l3.2,5.1C159.5,118,159.4,118.6,158.9,118.9z"/>
				<path class="st41" d="M148.9,110.2c-2.1,1.8-2.6,4.9-1.1,7.4l3.7,6l-0.7,0.4c-0.4,0.3-1,0.1-1.3-0.3l-3.2-5.1
					c-1.7-2.7-0.9-6.3,1.8-7.9C148.4,110.5,148.7,110.3,148.9,110.2z"/>
			</g>
		</g>
	</g>
</g>
</svg>
