<?xml version="1.0" encoding="utf-8"?>
<!-- Generator: Adobe Illustrator 21.0.0, SVG Export Plug-In . SVG Version: 6.00 Build 0)  -->
<svg version="1.1" id="Capa_1" xmlns="http://www.w3.org/2000/svg" xmlns:xlink="http://www.w3.org/1999/xlink" x="0px" y="0px"
	 viewBox="0 0 512 512" style="enable-background:new 0 0 512 512;" xml:space="preserve">
<style type="text/css">
	.st0{fill:#FFFFFF;}
</style>
<g>
	<g>
		<path class="st0" d="M391.3,0c-33.1,0-60.1,27-60.1,60.1v38.1c-8.9-5.1-19.1-8.1-30.1-8.1c-17.9,0-34.1,7.9-45.1,20.4
			c-11-12.5-27.1-20.4-45.1-20.4c-10.9,0-21.2,3-30.1,8.1V60.1c0-33.1-27-60.1-60.1-60.1S60.6,27,60.6,60.1v196.4v30.1v60.1
			c0,91.2,74.2,165.3,165.3,165.3h60.1c91.2,0,165.3-74.2,165.3-165.3V60.1C451.4,27,424.4,0,391.3,0z M271,150.3
			c0-16.6,13.5-30.1,30.1-30.1c16.6,0,30.1,13.5,30.1,30.1v69.2c-8.9-5.1-19.1-8.1-30.1-8.1H271V150.3z M180.9,150.3
			c0-16.6,13.5-30.1,30.1-30.1c16.6,0,30.1,13.5,30.1,30.1v61.1h-60.1L180.9,150.3L180.9,150.3z M90.7,60.1
			c0-16.6,13.5-30.1,30.1-30.1c16.6,0,30.1,13.5,30.1,30.1v152.4c-23.4,3.4-44.3,14.4-60.1,30.6L90.7,60.1L90.7,60.1z M421.3,346.7
			c0,74.6-60.7,135.3-135.3,135.3h-60.1c-74.6,0-135.3-60.7-135.3-135.3v-30.1c0-41.4,33.7-75.1,75.1-75.1h135.3
			c16.6,0,30.1,13.5,30.1,30.1s-13.5,30.1-30.1,30.1H165.8c-8.3,0-15,6.7-15,15s6.7,15,15,15c58,0,105.2,47.2,105.2,105.2
			c0,8.3,6.7,15,15,15s15-6.7,15-15c0-42.5-19.7-80.4-50.3-105.2h50.3c33.1,0,60.1-27,60.1-60.1V60.1c0-16.6,13.5-30.1,30.1-30.1
			c16.6,0,30.1,13.5,30.1,30.1L421.3,346.7L421.3,346.7z"/>
	</g>
</g>
</svg>
